# xmcd
#
# Track frame offsets: 
#        150
#        12752
#        25837
#        40155
#        52937
#
# Disc length: 867 seconds
#
# Revision: 0
# Processed by: cddbd v1.5.2PL0 Copyright (c) Steve Scherf et al.
# Submitted via: ExactAudioCopy v0.95b4
#
DISCID=2e036105
DTITLE=Chris Isaak - Forever Blue (Promo)
DYEAR=1995
DGENRE=
TTITLE0=Somebody's Crying
TTITLE1=Baby did a bad, bad thing
TTITLE2=Graduation Day
TTITLE3=Go walking down there
TTITLE4=Forever Blue
EXTD=
EXTT0=
EXTT1=
EXTT2=
EXTT3=
EXTT4=
PLAYORDER=
